<svg xmlns="http://www.w3.org/2000/svg" width="400" height="400" viewBox="0 0 400 400">
  <style>
    text {
      font-family: monospace, 'Courier New', Courier;
      font-size: 18px;
      font-weight: bold;
      fill: white;
    }
  </style>
  <rect width="400" height="400" fill="black"/>
  <text x="10" y="25">&lt;/&gt;</text>
  <text x="70" y="25">&lt;/&gt;</text>
  <text x="130" y="25">&lt;/&gt;</text>
  <text x="190" y="25">&lt;/&gt;</text>
  <text x="250" y="25">&lt;/&gt;</text>
  <text x="310" y="25">&lt;/&gt;</text>
  <text x="370" y="25">&lt;/&gt;</text>

  <text x="40" y="55">&lt;/&gt;</text>
  <text x="100" y="55">&lt;/&gt;</text>
  <text x="160" y="55">&lt;/&gt;</text>
  <text x="220" y="55">&lt;/&gt;</text>
  <text x="280" y="55">&lt;/&gt;</text>
  <text x="340" y="55">&lt;/&gt;</text>

  <text x="10" y="85">&lt;/&gt;</text>
  <text x="70" y="85">&lt;/&gt;</text>
  <text x="130" y="85">&lt;/&gt;</text>
  <text x="190" y="85">&lt;/&gt;</text>
  <text x="250" y="85">&lt;/&gt;</text>
  <text x="310" y="85">&lt;/&gt;</text>
  <text x="370" y="85">&lt;/&gt;</text>

  <text x="40" y="115">&lt;/&gt;</text>
  <text x="100" y="115">&lt;/&gt;</text>
  <text x="160" y="115">&lt;/&gt;</text>
  <text x="220" y="115">&lt;/&gt;</text>
  <text x="280" y="115">&lt;/&gt;</text>
  <text x="340" y="115">&lt;/&gt;</text>

  <text x="10" y="145">&lt;/&gt;</text>
  <text x="70" y="145">&lt;/&gt;</text>
  <text x="130" y="145">&lt;/&gt;</text>
  <text x="190" y="145">&lt;/&gt;</text>
  <text x="250" y="145">&lt;/&gt;</text>
  <text x="310" y="145">&lt;/&gt;</text>
  <text x="370" y="145">&lt;/&gt;</text>

  <text x="40" y="175">&lt;/&gt;</text>
  <text x="100" y="175">&lt;/&gt;</text>
  <text x="160" y="175">&lt;/&gt;</text>
  <text x="220" y="175">&lt;/&gt;</text>
  <text x="280" y="175">&lt;/&gt;</text>
  <text x="340" y="175">&lt;/&gt;</text>

  <text x="10" y="205">&lt;/&gt;</text>
  <text x="70" y="205">&lt;/&gt;</text>
  <text x="130" y="205">&lt;/&gt;</text>
  <text x="190" y="205">&lt;/&gt;</text>
  <text x="250" y="205">&lt;/&gt;</text>
  <text x="310" y="205">&lt;/&gt;</text>
  <text x="370" y="205">&lt;/&gt;</text>

  <text x="40" y="235">&lt;/&gt;</text>
  <text x="100" y="235">&lt;/&gt;</text>
  <text x="160" y="235">&lt;/&gt;</text>
  <text x="220" y="235">&lt;/&gt;</text>
  <text x="280" y="235">&lt;/&gt;</text>
  <text x="340" y="235">&lt;/&gt;</text>

  <text x="10" y="265">&lt;/&gt;</text>
  <text x="70" y="265">&lt;/&gt;</text>
  <text x="130" y="265">&lt;/&gt;</text>
  <text x="190" y="265">&lt;/&gt;</text>
  <text x="250" y="265">&lt;/&gt;</text>
  <text x="310" y="265">&lt;/&gt;</text>
  <text x="370" y="265">&lt;/&gt;</text>

  <text x="40" y="295">&lt;/&gt;</text>
  <text x="100" y="295">&lt;/&gt;</text>
  <text x="160" y="295">&lt;/&gt;</text>
  <text x="220" y="295">&lt;/&gt;</text>
  <text x="280" y="295">&lt;/&gt;</text>
  <text x="340" y="295">&lt;/&gt;</text>

  <text x="10" y="325">&lt;/&gt;</text>
  <text x="70" y="325">&lt;/&gt;</text>
  <text x="130" y="325">&lt;/&gt;</text>
  <text x="190" y="325">&lt;/&gt;</text>
  <text x="250" y="325">&lt;/&gt;</text>
  <text x="310" y="325">&lt;/&gt;</text>
  <text x="370" y="325">&lt;/&gt;</text>

  <text x="40" y="355">&lt;/&gt;</text>
  <text x="100" y="355">&lt;/&gt;</text>
  <text x="160" y="355">&lt;/&gt;</text>
  <text x="220" y="355">&lt;/&gt;</text>
  <text x="280" y="355">&lt;/&gt;</text>
  <text x="340" y="355">&lt;/&gt;</text>

  <text x="10" y="385">&lt;/&gt;</text>
  <text x="70" y="385">&lt;/&gt;</text>
  <text x="130" y="385">&lt;/&gt;</text>
  <text x="190" y="385">&lt;/&gt;</text>
  <text x="250" y="385">&lt;/&gt;</text>
  <text x="310" y="385">&lt;/&gt;</text>
  <text x="370" y="385">&lt;/&gt;</text>
</svg>
